<?xml version="1.0" standalone="no"?>
<!DOCTYPE svg PUBLIC "-//W3C//DTD SVG 20010904//EN"
 "http://www.w3.org/TR/2001/REC-SVG-20010904/DTD/svg10.dtd">
<svg version="1.0" xmlns="http://www.w3.org/2000/svg"
 width="500.000000pt" height="500.000000pt" viewBox="0 0 500.000000 500.000000"
 preserveAspectRatio="xMidYMid meet">
<metadata>
Created by potrace 1.16, written by Peter Selinger 2001-2019
</metadata>
<g transform="translate(0.000000,500.000000) scale(0.100000,-0.100000)"
fill="#000000" stroke="none">
<path d="M2298 4949 c-1029 -85 -1904 -814 -2169 -1808 -185 -689 -65 -1421
325 -2000 404 -598 997 -969 1723 -1077 147 -22 499 -22 646 0 730 109 1322
480 1728 1085 197 294 328 644 385 1028 11 74 17 177 17 323 0 146 -6 249 -17
323 -108 726 -479 1319 -1077 1723 -451 304 -1011 449 -1561 403z m542 -144
c495 -73 947 -302 1305 -660 360 -360 584 -805 661 -1315 25 -161 25 -502 1
-660 -64 -408 -211 -756 -461 -1090 -92 -123 -304 -335 -429 -429 -329 -246
-684 -396 -1087 -458 -160 -24 -499 -24 -664 1 -507 77 -952 301 -1311 661
-359 359 -584 805 -661 1310 -25 166 -25 503 0 670 76 504 301 951 661 1310
389 389 871 617 1425 675 123 13 426 4 560 -15z"/>
<path d="M1709 3473 c-20 -23 -26 -1895 -6 -1933 10 -19 22 -26 52 -28 24 -2
48 3 60 12 20 14 20 29 25 835 l5 821 240 -292 c244 -297 417 -506 879 -1065
226 -275 261 -313 286 -313 58 0 55 -49 57 979 2 750 0 951 -10 971 -10 20
-21 26 -58 28 -34 2 -50 -2 -60 -14 -12 -14 -15 -151 -19 -838 l-5 -820 -264
324 c-146 179 -324 397 -396 485 -72 88 -252 309 -399 490 -148 182 -279 340
-293 353 -28 26 -75 29 -94 5z"/>
</g>
</svg>
